<?xml version="1.0" encoding="utf-8"?>
<!DOCTYPE svg PUBLIC "-//W3C//DTD SVG 20010904//EN" "http://www.w3.org/TR/2001/REC-SVG-20010904/DTD/svg10.dtd">
<svg version="1.0" xmlns="http://www.w3.org/2000/svg" width="402pt" height="602pt" viewBox="0 0 402 602" style="" preserveAspectRatio="xMidYMid meet">
<g fill="#FF7362FF" stroke="#FF7362FF">
<path d="M 201.000 101.000 L 201.000 201.000 256.912 201.000 C 300.873 201.000 314.393 200.699 320.162 199.591 C 357.129 192.491 386.333 165.704 397.665 128.500 C 400.230 120.078 400.406 118.312 400.406 101.000 C 400.406 83.688 400.230 81.922 397.665 73.500 C 386.333 36.296 357.129 9.509 320.162 2.409 C 314.393 1.301 300.873 1.000 256.912 1.000 L 201.000 1.000 201.000 101.000 "/></g>
<g fill="#A359FFFF" stroke="#A359FFFF">
<path d="M 80.977 202.489 C 49.312 208.805 19.404 233.555 8.162 262.747 C 2.105 278.475 1.507 281.990 1.561 301.500 C 1.607 318.204 1.808 320.148 4.358 328.500 C 15.175 363.933 39.746 387.769 76.752 398.729 C 81.821 400.230 89.503 400.470 141.750 400.760 L 201.000 401.089 201.000 301.044 L 201.000 201.000 144.250 201.094 C 101.998 201.164 85.834 201.520 80.977 202.489 "/></g>
<g fill="#F24D18FF" stroke="#F24D18FF">
<path d="M 81.000 2.503 C 64.824 5.775 47.124 14.670 33.878 26.185 C 21.274 37.141 9.842 55.459 4.350 73.500 C 1.811 81.842 1.607 83.815 1.561 100.500 C 1.507 120.033 2.102 123.516 8.200 139.352 C 14.426 155.520 29.237 173.700 44.658 184.107 C 53.739 190.234 61.805 194.015 73.716 197.726 L 82.500 200.462 141.750 200.776 L 201.000 201.089 201.000 101.044 L 201.000 1.000 144.250 1.094 C 101.639 1.165 85.881 1.516 81.000 2.503 "/></g>
<g fill="#02D084FF" stroke="#02D084FF">
<path d="M 80.500 402.659 C 40.988 411.105 10.518 442.041 2.458 481.894 C -0.100 494.544 0.818 516.363 4.419 528.500 C 9.681 546.231 21.387 565.073 33.848 575.868 C 53.111 592.557 75.629 601.000 100.870 601.000 C 114.702 601.000 124.111 599.417 135.878 595.112 C 166.098 584.054 187.583 560.839 197.726 528.284 L 200.462 519.500 200.776 460.250 L 201.089 401.000 144.294 401.082 C 97.891 401.148 86.219 401.437 80.500 402.659 "/></g>
<g fill="#13BEFEFF" stroke="#13BEFEFF">
<path d="M 281.000 202.446 C 240.042 211.088 208.503 243.786 201.951 284.401 C 199.999 296.504 201.180 317.525 204.429 328.500 C 215.441 365.697 244.323 392.210 281.838 399.562 C 291.205 401.398 310.686 401.411 320.162 399.589 C 353.787 393.122 382.693 368.882 394.589 337.176 C 399.930 322.942 401.314 313.930 400.745 297.106 C 400.211 281.300 398.063 271.712 392.123 258.612 C 382.925 238.326 363.758 219.113 343.601 209.973 C 329.525 203.591 320.946 201.757 303.500 201.401 C 292.604 201.179 285.427 201.512 281.000 202.446 "/></g>
</svg>
