<?xml version="1.0" encoding="utf-8"?>
<!DOCTYPE svg PUBLIC "-//W3C//DTD SVG 20010904//EN" "http://www.w3.org/TR/2001/REC-SVG-20010904/DTD/svg10.dtd">
<svg version="1.0" xmlns="http://www.w3.org/2000/svg" width="484pt" height="473pt" viewBox="0 0 484 473" style="" preserveAspectRatio="xMidYMid meet">
<g fill="#5FBEE6FF" stroke="#5FBEE6FF">
<path d="M 115.132 93.105 C 96.980 96.557 86.214 114.466 91.455 132.492 C 93.849 140.729 102.910 149.805 111.363 152.434 C 119.257 154.889 127.466 154.132 134.920 150.261 L 140.500 147.363 136.887 154.688 C 126.738 175.262 130.020 199.919 145.105 216.424 C 147.857 219.436 150.085 222.148 150.055 222.450 C 150.025 222.753 150.000 222.735 150.000 222.411 C 150.000 221.907 152.224 223.526 157.750 228.055 C 158.438 228.618 159.000 228.829 159.000 228.523 C 159.000 228.217 161.164 229.063 163.809 230.403 C 166.454 231.744 172.192 233.588 176.559 234.503 C 204.686 240.392 233.284 222.799 241.582 194.500 C 244.062 186.045 243.852 171.539 241.127 163.000 C 233.124 137.920 209.728 121.675 184.000 123.336 C 171.114 124.167 159.468 128.762 151.401 136.198 C 148.980 138.429 147.000 140.030 147.000 139.754 C 147.000 139.479 147.953 137.101 149.117 134.468 C 151.889 128.203 151.454 115.622 148.255 109.500 C 142.038 97.603 128.006 90.657 115.132 93.105 M 201.375 150.395 C 208.383 153.824 215.297 161.421 217.651 168.280 C 220.546 176.715 220.029 185.467 216.175 193.297 C 210.389 205.049 200.098 211.440 187.000 211.415 C 177.942 211.398 172.298 209.159 165.485 202.879 C 147.447 186.253 153.636 157.099 177.005 148.607 C 183.705 146.173 194.340 146.953 201.375 150.395 M 129.480 108.287 C 135.348 111.610 138.171 117.079 137.727 124.263 C 136.788 139.455 119.253 146.186 108.536 135.469 C 100.387 127.320 101.919 115.015 111.922 108.274 C 116.489 105.196 124.032 105.201 129.480 108.287 "/></g>
<g fill="#146DB6FF" stroke="#146DB6FF">
<path d="M 90.660 214.004 C 76.673 216.951 63.170 224.072 52.610 234.067 C 34.072 251.615 26.022 270.080 26.007 295.090 C 25.998 309.695 28.195 318.892 34.983 332.663 C 51.536 366.246 90.305 384.162 127.669 375.497 C 134.588 373.892 143.679 370.302 149.462 366.890 L 153.173 364.700 139.945 351.445 L 126.716 338.189 122.792 339.573 C 102.085 346.879 76.447 335.949 66.465 315.561 C 52.705 287.454 70.186 253.512 100.913 248.673 L 108.000 247.557 108.000 229.779 L 108.000 212.000 103.750 212.070 C 101.413 212.109 95.522 212.979 90.660 214.004 "/></g>
<g fill="#231F20FF" stroke="#231F20FF">
<path d="M 275.705 257.628 C 275.317 258.016 275.000 277.158 275.000 300.167 L 275.000 342.000 282.485 342.000 L 289.971 342.000 290.235 311.820 L 290.500 281.640 309.000 311.806 L 327.500 341.972 335.761 341.986 L 344.022 342.000 343.761 299.750 L 343.500 257.500 336.265 257.206 L 329.029 256.913 328.765 287.484 L 328.500 318.054 309.861 287.777 L 291.221 257.500 283.816 257.212 C 279.743 257.053 276.093 257.241 275.705 257.628 "/></g>
<g fill="#146DB6FF" stroke="#146DB6FF">
<path d="M 160.446 230.756 C 161.477 231.997 162.117 233.217 161.867 233.467 C 161.481 233.852 155.420 236.418 126.058 248.627 L 122.616 250.058 128.803 252.984 C 140.054 258.305 149.365 269.074 153.105 281.091 C 155.451 288.628 155.590 300.650 153.416 307.971 L 151.832 313.304 164.652 326.152 C 171.702 333.218 177.844 339.000 178.300 339.000 C 179.566 339.000 186.608 323.330 188.635 316.000 C 191.168 306.848 191.217 283.123 188.723 274.000 C 184.757 259.489 176.404 245.537 165.375 235.000 C 161.633 231.425 159.415 229.515 160.446 230.756 "/></g>
<g fill="#1796D3FF" stroke="#1796D3FF">
<path d="M 111.415 291.421 C 105.031 294.201 101.754 301.694 103.977 308.430 C 104.854 311.087 113.745 320.415 139.031 345.206 C 157.664 363.475 173.942 378.814 175.205 379.293 C 178.962 380.719 185.857 379.478 188.691 376.866 C 192.423 373.426 194.255 368.472 193.484 363.908 C 192.908 360.495 189.073 356.325 158.886 326.285 C 140.214 307.703 123.713 291.958 122.218 291.295 C 118.669 289.722 115.226 289.762 111.415 291.421 "/></g>
<g fill="#231F20FF" stroke="#231F20FF">
<path d="M 372.994 279.934 C 365.425 282.237 358.416 288.706 354.637 296.878 C 352.863 300.715 352.512 303.284 352.571 312.000 C 352.648 323.354 353.499 326.287 358.844 333.641 C 369.268 347.980 396.291 346.649 406.013 331.318 C 410.662 323.988 410.248 323.000 402.526 323.000 C 396.352 323.000 395.980 323.138 394.509 325.983 C 393.660 327.624 391.511 329.733 389.733 330.671 C 385.257 333.032 376.640 332.854 373.172 330.329 C 370.093 328.087 366.000 320.645 366.000 317.288 L 366.000 315.000 387.883 315.000 C 413.034 315.000 411.511 315.689 409.999 304.990 C 408.408 293.737 400.778 283.816 391.205 280.554 C 386.450 278.934 377.306 278.623 372.994 279.934 M 387.606 291.909 C 390.660 293.296 392.261 294.907 393.856 298.202 C 397.713 306.171 397.995 306.000 381.000 306.000 C 364.693 306.000 364.883 306.078 367.067 300.315 C 369.211 294.656 375.402 290.100 381.000 290.061 C 382.375 290.052 385.348 290.883 387.606 291.909 "/></g>
<g fill="#231F20FF" stroke="#231F20FF">
<path d="M 423.000 271.454 L 423.000 281.000 418.000 281.000 L 413.000 281.000 413.000 286.000 L 413.000 291.000 418.000 291.000 L 423.000 291.000 423.000 311.532 C 423.000 333.659 423.686 337.481 428.166 340.326 C 431.417 342.390 438.123 343.308 444.019 342.497 L 449.000 341.812 449.000 336.522 L 449.000 331.231 443.928 331.308 C 440.531 331.359 438.554 330.908 437.943 329.942 C 437.441 329.149 437.024 320.063 437.015 309.750 L 437.000 291.000 443.000 291.000 L 449.000 291.000 449.000 286.000 L 449.000 281.000 443.038 281.000 L 437.075 281.000 436.788 271.750 L 436.500 262.500 429.750 262.204 L 423.000 261.909 423.000 271.454 "/></g>
<g fill="#14355EFF" stroke="#14355EFF">
<path d="M 108.000 229.899 L 108.000 248.000 111.750 248.024 C 113.813 248.037 117.223 248.448 119.329 248.936 C 122.820 249.747 124.870 249.114 142.579 241.765 C 153.260 237.332 162.000 233.332 162.000 232.876 C 162.000 231.246 151.657 223.910 144.520 220.478 C 136.052 216.405 125.471 213.526 115.250 212.515 L 108.000 211.797 108.000 229.899 "/></g>
<g fill="#231F20FF" stroke="#231F20FF">
<path d="M 216.000 295.000 L 216.000 302.000 232.500 302.000 L 249.000 302.000 249.000 295.000 L 249.000 288.000 232.500 288.000 L 216.000 288.000 216.000 295.000 "/></g>
<g fill="#5FBEE6FF" stroke="#5FBEE6FF">
<path d="M 155.000 322.000 L 185.000 352.000 155.000 322.000 L 125.000 292.000 155.000 322.000 "/></g>
<g fill="#5FBEE6FF" stroke="#5FBEE6FF">
<path d="M 163.986 326.266 C 171.403 333.820 177.740 340.000 178.066 340.000 C 178.393 340.000 172.324 333.820 164.580 326.266 L 150.500 312.532 163.986 326.266 "/></g>
<g fill="#5FBEE6FF" stroke="#5FBEE6FF">
<path d="M 162.000 368.000 L 173.000 379.000 162.000 368.000 L 151.000 357.000 162.000 368.000 "/></g>
<g fill="#5FBEE6FF" stroke="#5FBEE6FF">
<path d="M 114.000 321.000 L 122.000 329.000 114.000 321.000 L 106.000 313.000 114.000 321.000 "/></g>
<g fill="#5FBEE6FF" stroke="#5FBEE6FF">
<path d="M 50.000 235.953 L 45.500 240.556 50.000 235.953 L 54.500 231.350 50.000 235.953 "/></g>
<g fill="#5FBEE6FF" stroke="#5FBEE6FF">
<path d="M 167.000 236.000 L 171.000 240.000 167.000 236.000 L 163.000 232.000 167.000 236.000 "/></g>
<g fill="#5FBEE6FF" stroke="#5FBEE6FF">
<path d="M 49.500 353.500 L 53.000 357.000 49.500 353.500 L 46.000 350.000 49.500 353.500 "/></g>
<g fill="#5FBEE6FF" stroke="#5FBEE6FF">
<path d="M 150.000 361.000 L 153.000 364.000 150.000 361.000 L 147.000 358.000 150.000 361.000 "/></g>
</svg>
