<?xml version="1.0" encoding="utf-8"?>
<!DOCTYPE svg PUBLIC "-//W3C//DTD SVG 20010904//EN" "http://www.w3.org/TR/2001/REC-SVG-20010904/DTD/svg10.dtd">
<svg version="1.0" xmlns="http://www.w3.org/2000/svg" width="602pt" height="466pt" viewBox="0 0 602 466" style="" preserveAspectRatio="xMidYMid meet">
<g fill="#67696CFF" stroke="#67696CFF">
<path d="M 220.730 164.420 C 213.146 167.539 208.448 171.227 204.855 176.881 C 199.058 186.003 198.888 187.709 199.208 233.649 L 199.500 275.500 202.101 281.046 C 205.639 288.589 209.841 293.106 216.715 296.755 C 224.621 300.952 231.510 302.000 251.190 302.000 L 268.013 302.000 272.732 311.500 L 277.451 321.000 291.226 321.000 C 298.802 321.000 305.000 320.606 305.000 320.124 C 305.000 319.642 302.075 313.944 298.500 307.462 C 294.925 300.980 292.000 295.253 292.000 294.735 C 292.000 294.217 293.913 291.664 296.250 289.062 C 304.413 279.974 304.500 279.360 304.500 231.000 L 304.500 188.500 301.626 182.278 C 297.896 174.202 290.420 167.049 282.687 164.156 C 277.338 162.155 275.117 162.002 251.712 162.024 C 227.496 162.047 226.272 162.141 220.730 164.420 M 271.033 187.517 C 276.893 190.548 277.000 191.334 277.000 231.500 C 277.000 271.666 276.893 272.452 271.033 275.483 C 268.745 276.666 264.323 277.000 250.950 277.000 L 233.800 277.000 230.490 273.690 C 228.138 271.338 226.990 269.093 226.526 265.940 C 226.167 263.498 226.014 246.345 226.187 227.821 C 226.596 183.813 225.232 186.039 251.800 186.015 C 264.436 186.003 268.759 186.341 271.033 187.517 "/></g>
<g fill="#F46E0CFF" stroke="#F46E0CFF">
<path d="M 420.721 162.612 C 420.325 163.009 420.000 194.308 420.000 232.167 L 420.000 301.000 455.290 301.000 C 494.787 301.000 498.543 300.534 507.674 294.499 C 513.150 290.881 517.421 285.415 520.566 278.000 C 522.311 273.887 522.503 270.219 522.802 235.321 C 522.998 212.353 522.725 194.963 522.117 191.672 C 519.837 179.342 513.434 170.997 502.151 165.651 L 495.500 162.500 458.471 162.195 C 438.106 162.028 421.118 162.215 420.721 162.612 M 489.679 188.596 C 494.935 192.502 494.971 192.792 494.971 231.500 C 494.971 270.207 494.935 270.498 489.680 274.404 C 487.084 276.333 485.308 276.526 467.430 276.826 L 448.000 277.153 448.000 231.484 L 448.000 185.816 467.429 186.158 C 485.292 186.472 487.084 186.669 489.679 188.596 "/></g>
<g fill="#67696CFF" stroke="#67696CFF">
<path d="M 108.395 163.137 C 102.744 164.408 96.572 169.947 94.329 175.761 C 91.705 182.562 91.692 206.405 94.308 213.186 C 97.685 221.936 101.144 224.048 150.747 247.641 C 160.099 252.090 161.177 254.033 160.789 265.748 C 160.519 273.889 160.340 274.528 158.000 275.709 C 156.151 276.642 147.491 276.974 124.750 276.985 L 94.000 277.000 94.000 289.052 L 94.000 301.104 134.750 300.802 C 179.666 300.469 178.804 300.587 184.341 294.006 C 187.971 289.693 188.501 285.981 188.489 265.000 C 188.473 235.738 191.081 238.315 134.331 211.494 C 121.747 205.546 120.000 203.565 120.000 195.241 C 120.000 186.153 118.561 186.543 153.418 186.196 L 184.000 185.892 184.000 173.946 L 184.000 162.000 148.250 162.107 C 128.588 162.166 110.653 162.630 108.395 163.137 "/></g>
<g fill="#67696CFF" stroke="#67696CFF">
<path d="M 318.000 231.500 L 318.000 301.000 363.500 301.000 L 409.000 301.000 409.000 289.000 L 409.000 277.000 377.500 277.000 L 346.000 277.000 346.000 219.500 L 346.000 162.000 332.000 162.000 L 318.000 162.000 318.000 231.500 "/></g>
<g fill="#67696CFF" stroke="#67696CFF">
<path d="M 295.627 70.530 C 295.282 71.429 295.000 73.927 295.000 76.082 L 295.000 80.000 285.212 80.000 C 277.048 80.000 274.685 80.373 270.970 82.250 C 264.040 85.751 262.000 89.654 262.000 99.413 C 262.000 109.182 263.873 113.448 269.604 116.734 C 273.180 118.783 274.797 118.968 289.267 118.984 L 305.035 119.000 304.767 94.250 L 304.500 69.500 300.377 69.199 C 297.294 68.973 296.095 69.310 295.627 70.530 M 294.781 99.750 L 295.062 112.000 286.981 112.000 C 274.142 112.000 272.041 110.159 272.014 98.885 C 272.004 94.749 272.533 92.593 274.022 90.699 C 276.313 87.787 278.747 87.209 288.000 87.380 L 294.500 87.500 294.781 99.750 "/></g>
<g fill="#67696CFF" stroke="#67696CFF">
<path d="M 391.485 82.048 C 390.173 86.181 392.403 87.000 404.967 87.000 C 415.054 87.000 416.921 87.255 418.345 88.829 C 419.255 89.835 420.000 91.410 420.000 92.329 C 420.000 93.789 418.610 94.000 408.968 94.000 C 396.256 94.000 391.925 95.311 389.566 99.872 C 388.705 101.538 388.000 104.933 388.000 107.417 C 388.000 111.234 388.535 112.468 391.456 115.389 C 395.632 119.565 399.759 120.265 417.500 119.809 L 429.500 119.500 429.777 104.752 C 430.101 87.450 429.327 84.960 422.684 81.943 C 419.262 80.390 416.100 80.040 405.317 80.022 C 392.900 80.001 392.097 80.119 391.485 82.048 M 419.500 107.000 L 419.500 111.500 411.000 111.795 C 406.325 111.957 401.494 111.838 400.265 111.530 C 397.175 110.755 396.227 106.512 398.567 103.926 C 400.169 102.155 401.442 101.964 409.936 102.216 L 419.500 102.500 419.500 107.000 "/></g>
<g fill="#67696CFF" stroke="#67696CFF">
<path d="M 314.384 81.442 C 314.080 82.234 313.986 83.697 314.176 84.692 C 314.482 86.292 315.994 86.558 327.300 87.000 C 340.522 87.517 341.947 88.019 341.985 92.168 C 341.998 93.621 340.375 93.880 329.421 94.168 L 316.841 94.500 313.421 98.235 C 310.700 101.206 310.000 102.803 310.000 106.035 C 310.000 111.338 312.250 115.538 316.267 117.733 C 318.977 119.214 322.090 119.500 335.500 119.500 L 351.500 119.500 351.775 103.856 C 352.048 88.303 352.035 88.195 349.461 85.136 C 345.974 80.991 341.728 80.012 327.219 80.006 C 317.442 80.001 314.824 80.294 314.384 81.442 M 342.000 107.000 L 342.000 112.000 332.329 112.000 C 324.733 112.000 322.265 111.645 320.829 110.345 C 318.470 108.211 318.517 106.483 321.000 104.000 C 322.719 102.281 324.333 102.000 332.500 102.000 L 342.000 102.000 342.000 107.000 "/></g>
<g fill="#67696CFF" stroke="#67696CFF">
<path d="M 223.483 76.982 C 216.343 83.572 210.054 90.158 209.509 91.618 C 208.603 94.045 208.955 94.665 213.629 98.886 C 216.439 101.423 222.562 106.988 227.234 111.250 L 235.729 119.000 242.365 119.000 C 247.018 119.000 249.000 118.625 249.000 117.746 C 249.000 117.056 243.128 111.161 235.950 104.646 C 228.773 98.130 223.035 92.461 223.200 92.048 C 223.365 91.635 229.238 86.018 236.250 79.566 C 243.263 73.114 249.000 67.197 249.000 66.418 C 249.000 65.345 247.475 65.000 242.733 65.000 L 236.467 65.000 223.483 76.982 "/></g>
<g fill="#67696CFF" stroke="#67696CFF">
<path d="M 198.861 353.912 C 196.626 355.721 196.500 356.441 196.500 367.376 C 196.500 381.556 196.827 382.040 206.888 382.760 C 212.640 383.171 214.059 383.611 214.542 385.133 C 214.868 386.160 216.053 387.000 217.174 387.000 C 218.736 387.000 219.038 386.590 218.462 385.250 C 218.049 384.288 217.810 382.825 217.932 382.000 C 218.053 381.175 218.371 374.879 218.639 368.010 C 219.103 356.096 219.025 355.439 216.952 353.760 C 213.776 351.188 202.103 351.286 198.861 353.912 M 213.346 356.264 C 214.829 357.348 215.034 359.020 214.788 368.014 L 214.500 378.500 208.666 378.802 C 200.492 379.226 199.997 378.587 200.015 367.628 C 200.031 358.245 200.415 356.713 203.000 355.729 C 205.750 354.682 211.596 354.984 213.346 356.264 "/></g>
<g fill="#67696CFF" stroke="#67696CFF">
<path d="M 260.000 367.599 L 260.000 383.199 268.896 382.849 C 281.626 382.349 282.000 381.907 282.000 367.345 C 282.000 352.446 281.622 352.000 269.000 352.000 L 260.000 352.000 260.000 367.599 M 275.469 355.988 L 278.068 356.976 277.784 367.738 L 277.500 378.500 270.750 378.796 L 264.000 379.091 264.000 367.712 C 264.000 361.454 264.300 356.033 264.667 355.667 C 265.671 354.663 272.518 354.866 275.469 355.988 "/></g>
<g fill="#67696CFF" stroke="#67696CFF">
<path d="M 360.187 74.864 C 359.159 75.515 358.941 79.782 359.187 94.432 L 359.500 113.168 362.766 116.084 C 365.914 118.895 366.393 119.000 376.082 119.000 L 386.133 119.000 385.816 116.250 C 385.509 113.578 385.304 113.492 378.542 113.200 C 374.715 113.034 371.002 112.417 370.292 111.827 C 369.405 111.091 369.000 107.829 369.000 101.421 L 369.000 92.088 376.250 91.794 L 383.500 91.500 383.813 88.250 L 384.127 85.000 376.563 85.000 L 369.000 85.000 369.000 80.107 C 369.000 76.568 368.562 75.046 367.418 74.607 C 365.199 73.755 361.741 73.878 360.187 74.864 "/></g>
<g fill="#67696CFF" stroke="#67696CFF">
<path d="M 390.000 375.868 C 390.000 390.333 390.088 391.000 392.000 391.000 C 393.656 391.000 394.000 390.333 394.000 387.124 L 394.000 383.248 399.439 382.797 C 407.265 382.148 408.000 381.221 408.000 372.000 C 408.000 366.245 407.604 363.916 406.464 362.970 C 405.619 362.269 401.569 361.479 397.464 361.216 L 390.000 360.737 390.000 375.868 M 403.796 372.250 L 404.091 379.000 399.046 379.000 L 394.000 379.000 394.000 371.945 L 394.000 364.890 398.750 365.195 L 403.500 365.500 403.796 372.250 "/></g>
<g fill="#67696CFF" stroke="#67696CFF">
<path d="M 367.570 363.339 C 365.433 365.476 365.000 366.836 365.000 371.407 C 365.000 377.948 366.460 381.620 369.372 382.402 C 373.458 383.498 380.570 382.990 382.777 381.443 C 384.727 380.078 385.000 378.995 385.000 372.634 C 385.000 363.072 383.999 361.772 376.204 361.208 C 370.722 360.812 369.892 361.017 367.570 363.339 M 380.796 372.250 L 381.091 379.000 375.653 379.000 C 369.581 379.000 369.000 378.388 369.000 372.000 C 369.000 365.514 369.607 364.867 375.375 365.202 L 380.500 365.500 380.796 372.250 "/></g>
<g fill="#67696CFF" stroke="#67696CFF">
<path d="M 336.000 362.291 C 333.692 363.455 333.477 364.165 333.202 371.526 C 332.820 381.767 333.993 383.000 344.111 383.000 C 350.333 383.000 351.000 382.806 351.000 381.000 C 351.000 379.190 350.333 379.000 344.000 379.000 C 337.667 379.000 337.000 378.810 337.000 377.000 C 337.000 375.270 337.667 375.000 341.935 375.000 C 344.649 375.000 348.024 374.561 349.435 374.025 C 351.709 373.160 352.000 372.491 352.000 368.123 C 352.000 363.495 351.808 363.129 348.851 362.098 C 344.684 360.645 339.095 360.729 336.000 362.291 M 348.000 368.000 C 348.000 370.970 347.944 371.000 342.500 371.000 C 337.405 371.000 337.000 370.828 337.000 368.667 C 337.000 365.403 337.678 365.000 343.167 365.000 C 347.870 365.000 348.000 365.080 348.000 368.000 "/></g>
<g fill="#67696CFF" stroke="#67696CFF">
<path d="M 290.000 362.234 C 287.664 363.466 287.481 364.127 287.211 372.286 C 286.923 380.976 286.935 381.025 289.639 382.053 C 291.134 382.621 295.085 382.954 298.418 382.793 C 303.256 382.559 304.547 382.147 304.813 380.750 C 305.105 379.217 304.270 379.000 298.073 379.000 C 291.667 379.000 291.000 378.811 291.000 377.000 C 291.000 375.253 291.667 375.000 296.277 375.000 C 303.324 375.000 306.000 373.092 306.000 368.066 C 306.000 365.823 305.355 363.710 304.439 362.950 C 302.210 361.100 293.015 360.644 290.000 362.234 M 301.816 368.250 C 302.128 370.959 302.049 371.000 296.566 371.000 C 291.027 371.000 291.000 370.985 291.000 367.948 L 291.000 364.895 296.250 365.198 C 301.147 365.480 301.521 365.685 301.816 368.250 "/></g>
<g fill="#67696CFF" stroke="#67696CFF">
<path d="M 416.000 362.234 C 413.691 363.452 413.480 364.163 413.244 371.526 C 413.104 375.912 413.424 380.175 413.957 381.000 C 414.681 382.121 416.885 382.500 422.691 382.500 C 429.289 382.500 430.509 382.237 430.802 380.750 C 431.104 379.216 430.274 379.000 424.073 379.000 C 417.667 379.000 417.000 378.811 417.000 377.000 C 417.000 375.253 417.667 375.000 422.277 375.000 C 429.324 375.000 432.000 373.092 432.000 368.066 C 432.000 365.823 431.355 363.710 430.439 362.950 C 428.210 361.100 419.015 360.644 416.000 362.234 M 428.000 368.000 C 428.000 370.970 427.944 371.000 422.500 371.000 C 417.056 371.000 417.000 370.970 417.000 368.000 C 417.000 365.030 417.056 365.000 422.500 365.000 C 427.944 365.000 428.000 365.030 428.000 368.000 "/></g>
<g fill="#67696CFF" stroke="#67696CFF">
<path d="M 171.977 354.042 C 171.376 355.166 171.023 357.753 171.192 359.792 C 171.486 363.337 171.862 363.688 179.750 367.794 C 187.664 371.913 188.000 372.229 188.000 375.544 L 188.000 379.000 180.000 379.000 C 172.667 379.000 172.000 379.167 172.000 381.000 C 172.000 382.833 172.667 383.000 180.000 383.000 C 189.539 383.000 192.010 381.402 191.985 375.250 C 191.963 370.005 191.071 369.011 182.800 365.021 C 177.127 362.285 175.425 360.968 175.163 359.113 C 174.696 355.814 176.429 355.033 184.250 355.015 C 189.577 355.003 191.000 354.684 191.000 353.500 C 191.000 352.278 189.337 352.000 182.035 352.000 C 174.032 352.000 172.953 352.219 171.977 354.042 "/></g>
<g fill="#67696CFF" stroke="#67696CFF">
<path d="M 225.000 367.500 L 225.000 383.000 234.500 383.000 C 243.333 383.000 244.000 382.860 244.000 381.000 C 244.000 379.178 243.333 379.000 236.500 379.000 L 229.000 379.000 229.000 365.500 C 229.000 352.667 228.901 352.000 227.000 352.000 C 225.086 352.000 225.000 352.667 225.000 367.500 "/></g>
<g fill="#67696CFF" stroke="#67696CFF">
<path d="M 309.000 361.414 C 309.000 361.642 310.599 366.030 312.553 371.164 C 316.627 381.869 318.188 384.002 320.761 382.379 C 322.563 381.242 330.168 362.501 329.214 361.548 C 327.471 359.805 325.799 361.932 322.924 369.549 C 321.150 374.251 319.386 377.738 319.004 377.299 C 318.623 376.859 317.268 373.575 315.992 370.000 C 314.717 366.425 313.242 362.938 312.715 362.250 C 311.830 361.098 309.000 360.461 309.000 361.414 "/></g>
<g fill="#00A0E9FF" stroke="#00A0E9FF">
<path d="M 187.000 92.500 L 187.000 100.000 192.000 100.000 L 197.000 100.000 197.000 92.500 L 197.000 85.000 192.000 85.000 L 187.000 85.000 187.000 92.500 "/></g>
<g fill="#004A9AFF" stroke="#004A9AFF">
<path d="M 203.000 73.555 L 203.000 81.110 207.750 80.805 L 212.500 80.500 212.794 73.250 L 213.088 66.000 208.044 66.000 L 203.000 66.000 203.000 73.555 "/></g>
<g fill="#8EC31FFF" stroke="#8EC31FFF">
<path d="M 203.000 111.555 L 203.000 119.110 207.750 118.805 L 212.500 118.500 212.794 111.250 L 213.088 104.000 208.044 104.000 L 203.000 104.000 203.000 111.555 "/></g>
<g fill="#67696CFF" stroke="#67696CFF">
<path d="M 357.000 367.573 C 357.000 381.866 357.144 383.119 358.750 382.811 C 360.311 382.511 360.530 380.826 360.776 367.237 C 361.043 352.511 360.984 352.000 359.026 352.000 C 357.078 352.000 357.000 352.600 357.000 367.573 "/></g>
<g fill="#67696CFF" stroke="#67696CFF">
<path d="M 441.210 362.134 C 436.970 363.350 435.838 366.357 436.210 375.411 C 436.448 381.209 436.814 382.539 438.250 382.813 C 439.797 383.108 440.000 382.232 440.000 375.273 C 440.000 366.822 440.847 365.000 444.773 365.000 C 446.451 365.000 447.052 364.512 446.823 363.333 C 446.411 361.205 445.286 360.965 441.210 362.134 "/></g>
<g fill="#67696CFF" stroke="#67696CFF">
<path d="M 202.419 104.349 C 202.135 105.091 202.061 108.804 202.255 112.599 L 202.608 119.500 202.804 111.802 L 203.000 104.105 208.250 103.737 L 213.500 103.370 208.219 103.185 C 204.572 103.057 202.777 103.418 202.419 104.349 "/></g>
<g fill="#67696CFF" stroke="#67696CFF">
<path d="M 191.750 84.707 L 197.000 85.105 197.222 92.552 L 197.444 100.000 197.472 92.250 L 197.500 84.500 192.000 84.405 L 186.500 84.309 191.750 84.707 "/></g>
<g fill="#67696CFF" stroke="#67696CFF">
<path d="M 202.417 66.355 C 202.131 67.101 202.059 70.588 202.256 74.105 L 202.615 80.500 202.807 73.302 L 203.000 66.105 208.250 65.737 L 213.500 65.370 208.219 65.185 C 204.561 65.057 202.777 65.417 202.417 66.355 "/></g>
</svg>
